<svg id="圖層_1" data-name="圖層 1" xmlns="http://www.w3.org/2000/svg" viewBox="0 0 277.88 384.2"><defs><style>.cls-1{fill:#fff;}.cls-2{fill:#972832;}.cls-3{fill:none;}</style></defs><path class="cls-1" d="M279.22,457.36c-11.94,0-20.82-10.59-21.09-22.06-.13-5.44,0-10.91,0-16.35V371.38c0-9.05,3.79-18.86,13.24-21.77,13-4,24.92,8.33,25.47,20.65.6,13.64,0,27.43,0,41.08v23.42c0,10.54-5.63,22.33-17.63,22.6-1.86,0-5,.56-5.94,2.5-.85,1.79.72,2.84,2.48,2.8,14.69-.33,29.34-10.26,30.09-26,.26-5.44,0-10.95,0-16.4,0-16.79.12-33.59,0-50.38a26.08,26.08,0,0,0-22.4-26c-14-2.09-29.19,5.93-33.36,19.87-1.77,5.91-1,12.87-1,18.95v30.44c0,7.72,0,15.44,0,23.15a26.35,26.35,0,0,0,26.66,26.29c1.85,0,5-.59,5.94-2.5S281,457.36,279.22,457.36Z" transform="translate(-131.45 -78.46)"/><path class="cls-1" d="M342.66,353.3h32.43c2.29,0,11.54-1.58,9.72,3.41-.44,1.23-2.08,2.67-2.94,3.73l-6.28,7.67c-3,3.7-6.17,7.33-9.1,11.11s-2.56,7.45-2.56,11.75v56.16a28.81,28.81,0,0,1-.06,3.6c-.67,5-3.71,4.49-7.64,4.49-1.91,0-5,.58-5.92,2.56s.72,3,2.55,3c3.7,0,7.47.28,11-1,4.67-1.66,8.61-5.48,9.06-10.6.29-3.26,0-6.65,0-9.91V396.06c0-3.67-.18-7.39,0-11.05.26-5.17,5.41-9.48,8.5-13.25,3.57-4.36,7.26-8.65,10.72-13.1,2.43-3.11,2.65-7.46-1.08-9.76-1.92-1.19-4.09-1.2-6.26-1.2H346c-1.91,0-5,.58-5.92,2.56s.72,3,2.55,3Z" transform="translate(-131.45 -78.46)"/><path class="cls-1" d="M331.61,399.07h71.5c1.74,0,5.07-.63,6-2.38s-.77-2.34-2.36-2.34H335.22c-1.75,0-5.07.63-6,2.38s.77,2.34,2.36,2.34Z" transform="translate(-131.45 -78.46)"/><path class="cls-1" d="M160.76,343c-4.36,0-9-.5-13.14,1.12a13.27,13.27,0,0,0-7.83,7.66c-.81,2.27-.66,4.56-.66,6.93v30.79c0,4.65,9.11,3.27,9.11-.71V360.74c0-3-.87-7.87,1.4-10.27a2.59,2.59,0,0,1,2.44-1c.64,0,1.28,0,1.91,0h5.95c1.92,0,4.75-1.49,5-3.6.24-2.35-2.4-2.9-4.15-2.9Z" transform="translate(-131.45 -78.46)"/><path class="cls-1" d="M163,359.16H145.57a10.56,10.56,0,0,0-3.51.76,6.48,6.48,0,0,0-2.49,1.49c-1.37,1.58,1.22,1.84,2.23,1.84h17.45a10.62,10.62,0,0,0,3.52-.76,6.44,6.44,0,0,0,2.48-1.49c1.38-1.59-1.21-1.84-2.22-1.84Z" transform="translate(-131.45 -78.46)"/><path class="cls-1" d="M162.87,371.69H145.41a8.92,8.92,0,0,0-3.53.69,5.28,5.28,0,0,0-2.4,1.8c-1,1.8.85,2.77,2.47,2.77h17.46a8.89,8.89,0,0,0,3.53-.69,5.26,5.26,0,0,0,2.41-1.8c1-1.8-.86-2.77-2.48-2.77Z" transform="translate(-131.45 -78.46)"/><path class="cls-1" d="M192.6,348.88h5c1.67,0,3.44-.21,5,.51,4.69,2.17,3.93,7.56,3.93,11.8v28.52c0,2,2.33,2.19,3.91,2,1.31-.16,5.11-1.2,5.11-3.1V359.7c0-1.91,0-3.83,0-5.74a10.05,10.05,0,0,0-4.82-8.44c-4.18-2.65-9.88-1.86-14.62-1.86-2,0-4.83.63-5.93,2.49s.9,2.73,2.46,2.73Z" transform="translate(-131.45 -78.46)"/><path class="cls-1" d="M190.64,363.11H208.1a11.23,11.23,0,0,0,6.37-1.71c.4-.29,1.2-.79,1-1.4s-1.16-.7-1.6-.7H196.44a11.29,11.29,0,0,0-6.36,1.7c-.41.3-1.2.8-1,1.41s1.17.7,1.6.7Z" transform="translate(-131.45 -78.46)"/><path class="cls-1" d="M190.62,376.16h17.46a11.6,11.6,0,0,0,6.37-1.71c.39-.26,1.21-.75,1.05-1.34s-1.18-.63-1.58-.63H196.46a11.68,11.68,0,0,0-6.37,1.7c-.39.27-1.21.76-1.05,1.35s1.18.63,1.58.63Z" transform="translate(-131.45 -78.46)"/><path class="cls-1" d="M142.48,409c0-4.24-2.06-16.32,4.08-16.7,5.21-.32,10.54,0,15.75,0h26.55c6,0,12.17-.36,18.19,0,7.71.46,5.68,11.94,5.68,17.47,0,4.55,9.1,3.09,9.1-.77,0-3.71.08-7.42,0-11.13-.12-5.95-3.73-10.58-9.75-11.65-5.57-1-11.87-.23-17.49-.23-15.72,0-31.66-.78-47.36,0-6.8.33-13.43,4.89-13.85,12.1-.23,3.86,0,7.8,0,11.68,0,4.55,9.1,3.09,9.1-.77Z" transform="translate(-131.45 -78.46)"/><path class="cls-1" d="M191.85,435.73H163.79c-.18,0-1.25-.08-.64,0s-1-.26-1.31-.4a6.06,6.06,0,0,1-1.89-1.48,7.31,7.31,0,0,1-1.75-4.44c-.29-4.37,0-8.85,0-13.23,0-3.27-1.09-10.21,2.6-11.74a10.45,10.45,0,0,1,2.85-.12h22.46c1.51,0,3,0,4.54,0H191c-1.17-.07.47.17.83.32a6.36,6.36,0,0,1,3.39,3.71c.67,1.85.47,3.85.47,5.78v9.25c0,3.56,1.2,12.17-3.82,12.36-1.91.06-4.75,1.42-5,3.56s2.42,2.88,4.13,2.81a14.66,14.66,0,0,0,12.52-7.61,15.25,15.25,0,0,0,1.27-7.23c0-5.51,0-11,0-16.52,0-7.83-5.37-12.78-13.17-12.81H177.36c-4.74,0-9.5-.11-14.24,0a15.19,15.19,0,0,0-10.85,4.83c-2.56,2.83-3.18,6.16-3.18,9.82v14.91c0,2.43-.14,4.91.8,7.2a12.2,12.2,0,0,0,11,7.4c10,.4,20.1,0,30.12,0,1.9,0,4.75-1.46,5-3.56C196.23,436.21,193.55,435.73,191.85,435.73Z" transform="translate(-131.45 -78.46)"/><path class="cls-1" d="M189.68,411.93H155.4c-2,0-4.77.66-6,2.44s1,2.6,2.43,2.6h34.28c2,0,4.77-.66,6-2.44s-1-2.6-2.43-2.6Z" transform="translate(-131.45 -78.46)"/><path class="cls-1" d="M189.71,425.31H155.43c-2,0-4.75.68-6,2.4s1,2.42,2.38,2.42h34.28c2,0,4.76-.68,6-2.4s-1-2.42-2.38-2.42Z" transform="translate(-131.45 -78.46)"/><path class="cls-1" d="M165,440.12c.08-.8,0-.22,0,.09s-.2.91-.33,1.35a19.45,19.45,0,0,1-1.92,4.41c-.26.44-.53.86-.81,1.28-.14.2-.42.57-.84,1.09a25.68,25.68,0,0,1-2.69,2.73l-.41.35s.37-.3.09-.08-.6.46-.91.68l-.85.58-.88.55-.69.38c-.4.2-.8.4-1.2.58l-.47.22c-.57.26.68-.27.07,0s-1,.4-1.53.58l-.71.24c.39-.13.58-.17.08,0l-1.75.48-.82.19c-.75.18,1.11-.19-.26.05-.58.1-1.17.22-1.76.31a34.84,34.84,0,0,1-3.7.41c-1.62.12-3.24.16-4.86.17-1.82,0-4.78.73-6,2.2S133,460.6,134,460.6c14.21-.06,34.19-4.43,39.36-19.9a14.69,14.69,0,0,0,.67-3c.14-1.4-8.71-.45-9,2.41Z" transform="translate(-131.45 -78.46)"/><path class="cls-1" d="M182.23,440.12v9.54a11.32,11.32,0,0,0,1,5.23,10.07,10.07,0,0,0,6.38,5.25,17.79,17.79,0,0,0,4.88.43h6c1.49,0,3,.07,4.51,0a18.91,18.91,0,0,0,11.45-4.47c3.84-3.51,3.39-8.31,3.39-13,0-1.61-9-.29-9,2.42,0,3.21.48,6.77-1.28,9.64a7,7,0,0,1-1,1.28c-.18.18-.37.33-.55.5.2-.19-.45.42-.17.12s-.76.18.12,0c.3-.07.64-.15.94-.24,1-.3-1.06,0,.54,0h-9.23a12,12,0,0,1-3.2-.19c-4.21-1.16-5.71-5.36-5.71-9.29v-9.54c0-1.62-9-.3-9,2.41Z" transform="translate(-131.45 -78.46)"/><circle class="cls-2" cx="137.16" cy="322.4" r="13.96"/><path class="cls-1" d="M268.61,416.37a15.52,15.52,0,1,1,15.51-15.51A15.53,15.53,0,0,1,268.61,416.37Zm0-27.92A12.41,12.41,0,1,0,281,400.86,12.41,12.41,0,0,0,268.61,388.45Z" transform="translate(-131.45 -78.46)"/><circle class="cls-2" cx="221.44" cy="367.58" r="13.96"/><path class="cls-1" d="M352.89,461.56A15.52,15.52,0,1,1,368.41,446,15.53,15.53,0,0,1,352.89,461.56Zm0-27.93A12.41,12.41,0,1,0,365.3,446,12.43,12.43,0,0,0,352.89,433.63Z" transform="translate(-131.45 -78.46)"/><circle class="cls-2" cx="46.41" cy="277.63" r="5.81"/><path class="cls-1" d="M177.85,363.45a7.36,7.36,0,1,1,7.37-7.36A7.37,7.37,0,0,1,177.85,363.45Zm0-11.61a4.25,4.25,0,1,0,4.26,4.25A4.26,4.26,0,0,0,177.85,351.84Z" transform="translate(-131.45 -78.46)"/><circle class="cls-2" cx="46.41" cy="295.48" r="5.81"/><path class="cls-1" d="M177.85,381.31a7.37,7.37,0,1,1,7.37-7.37A7.37,7.37,0,0,1,177.85,381.31Zm0-11.62a4.26,4.26,0,1,0,4.26,4.25A4.26,4.26,0,0,0,177.85,369.69Z" transform="translate(-131.45 -78.46)"/><path class="cls-3" d="M262.47,170.8c-10.23,0-23.72,3.69-29.44,12.79-7.57,12.06,3.25,26,11.55,34.38A43.61,43.61,0,0,0,276,231c6.82,0,16-1.47,20.19-7.56,1.6-2.33,1.7-5.28,1.46-8-.42-5-1.76-9.95-2.86-14.84-1.7-7.58-3.19-14.44-8.82-20.13A33.46,33.46,0,0,0,262.47,170.8Zm28.06,43.42c.41,2.54.84,5.34.22,7.88-1.28,5.2-6.27,6.39-10.94,6.3a40.42,40.42,0,0,1-27.66-11.51c-7.23-7-15.75-16.92-14.79-27.7.88-9.91,10.81-15.16,19.36-15.72,8.17-.53,16.46,3.12,22.31,8.7s7.32,12.62,9,20.27C289,206.35,289.9,210.26,290.53,214.22Z" transform="translate(-131.45 -78.46)"/><path class="cls-3" d="M345,190.27c.51,2.6.92,5.22,1.21,7.86a92,92,0,0,1-3.09,36.35c-6,19.66-21,34.91-41,40.19-14.43,3.8-30.15,3.58-45,2.92-14.5-.65-30-2.74-42.69-10.23-5.33-3.15-10.81-7.94-13.38-13.22-2.93-6-5.09-12.51-7.51-18.75-6.27-16.09-13.57-32.08-15.11-49.49-1-10.86.75-21.76,6.71-31,4.95-7.7,12.21-13.63,19.85-18.53,7.21-4.61,14.93-8.31,22.62-12,10.45-5,21.16-10.36,32.89-11.36a53.72,53.72,0,0,1,12.87.51c.49-1.54,1.06-3,1.69-4.55-22.13-3-42.47,7.61-61.6,17.49-16.6,8.57-33.66,20-39.75,38.62-5.94,18.15-.21,37.79,6.38,54.92,3.93,10.23,7.86,20.46,12,30.63,2.14,5.31,4.39,9.86,8.59,13.95,11.72,11.39,29.1,15.25,44.83,16.86a203.84,203.84,0,0,0,45.26-.25c21.44-2.68,41-12.78,52.37-31.72,8.45-14.13,11.19-31,10.33-47.26q-.16-2.92-.47-5.84c-.28-2.47-.65-4.94-1.13-7.41-1.54.4-3.1.76-4.68,1.05C346.41,190.09,345.68,190.16,345,190.27Z" transform="translate(-131.45 -78.46)"/><path class="cls-3" d="M238.49,144.56c-10.79,3.75-23.2,8.63-30.11,18.17-7.53,10.4-6.17,24.11-4.64,36.17a73.82,73.82,0,0,0,14.74,35.62c8.06,10.59,19.17,18.49,32.21,21.57,11.8,2.8,23.5,1.26,35.13-1.44,12.57-2.92,25.3-7.52,33.33-18.22,8.87-11.81,8.22-26.44,5.07-40.11-.53-2.22-1.19-4.41-1.92-6.59a69.63,69.63,0,0,1-8.21-2.12,77,77,0,0,1,3.38,10.52c2.43,10.54,3.71,21.8-1.09,31.92-5.1,10.79-15.34,16.29-26.4,19.29-9.38,2.54-19.08,4.61-28.84,3.68a51.09,51.09,0,0,1-33.47-17.66,70.71,70.71,0,0,1-15.67-30,88.93,88.93,0,0,1-2-13.67c-.49-6.14-1.05-12.46.26-18.54,2.75-12.74,13.65-18.1,24.61-22.75,11.16-4.74,23.42-7.11,35.4-4.25,1,.24,2,.55,3,.85-.54-1.8-1-3.61-1.38-5.44C260.73,139.5,249.18,140.85,238.49,144.56Z" transform="translate(-131.45 -78.46)"/><path class="cls-1" d="M256.72,173.47c-8.55.56-18.48,5.81-19.36,15.72-1,10.78,7.56,20.69,14.79,27.7a40.42,40.42,0,0,0,27.66,11.51c4.67.09,9.66-1.1,10.94-6.3.62-2.54.19-5.34-.22-7.88-.63-4-1.58-7.87-2.46-11.78-1.72-7.65-3.16-14.65-9-20.27S264.89,172.94,256.72,173.47Z" transform="translate(-131.45 -78.46)"/><ellipse class="cls-2" cx="333.88" cy="132.04" rx="52.59" ry="55.07" transform="translate(-105.03 239) rotate(-52.67)"/><path class="cls-3" d="M282.91,110.47a49.1,49.1,0,0,0-1.52,4.83c11.57,3.46,22.29,10.18,31.1,18.17a105.66,105.66,0,0,1,31,50.4c.13.47.2.95.32,1.42a52.62,52.62,0,0,0,6.89-1.22C342.54,150.69,316.48,119.08,282.91,110.47Z" transform="translate(-131.45 -78.46)"/><path class="cls-3" d="M309.49,178a60.2,60.2,0,0,0,10,4.46c-7.41-16.56-20.53-30.95-37.28-37.78a57.34,57.34,0,0,0,3,7.73C295.32,158.44,303.61,167.58,309.49,178Z" transform="translate(-131.45 -78.46)"/><path class="cls-3" d="M343.53,80.06c-17.87-4.4-36.67.39-49.34,13,27.66,5.84,51.24,22.88,64.77,47.88a129.24,129.24,0,0,1,12,32.58,52,52,0,0,0,17.34-39.3C387.3,108.44,368.49,86.2,343.53,80.06Z" transform="translate(-131.45 -78.46)"/><path class="cls-1" d="M317.47,198.13a75.4,75.4,0,0,0-2.64-8.61,4.49,4.49,0,0,0-2.68-2.58,63.82,63.82,0,0,1-32-24.94,58.53,58.53,0,0,1-6.92-14.95c-1-.3-2-.61-3-.85-12-2.86-24.24-.49-35.4,4.25-11,4.65-21.86,10-24.61,22.75-1.31,6.08-.75,12.4-.26,18.54a88.93,88.93,0,0,0,2,13.67,70.71,70.71,0,0,0,15.67,30A51.09,51.09,0,0,0,261.14,253c9.76.93,19.46-1.14,28.84-3.68,11.06-3,21.3-8.5,26.4-19.29C321.18,219.93,319.9,208.67,317.47,198.13Zm-21.25,25.35C292,229.57,282.85,231.06,276,231A43.61,43.61,0,0,1,244.58,218c-8.3-8.38-19.12-22.32-11.55-34.38,5.72-9.1,19.21-12.79,29.44-12.79A33.46,33.46,0,0,1,286,180.5c6.7,6.76,7.54,15.2,9.85,24.52a73.27,73.27,0,0,1,1.76,9.64C297.92,217.6,298,220.92,296.22,223.48Z" transform="translate(-131.45 -78.46)"/><path class="cls-1" d="M346.17,198.13c-.13-1.21-.29-2.41-.47-3.6a4.46,4.46,0,0,0-4.64-3.8,67.24,67.24,0,0,1-12,0,4.48,4.48,0,0,0-4.83,5.49l0,.14c3.15,13.67,3.8,28.3-5.07,40.11-8,10.7-20.76,15.3-33.33,18.22-11.63,2.7-23.33,4.24-35.13,1.44-13-3.08-24.15-11-32.21-21.57a73.82,73.82,0,0,1-14.74-35.62c-1.53-12.06-2.89-25.77,4.64-36.17,6.91-9.54,19.32-14.42,30.11-18.17a67.21,67.21,0,0,1,27.73-3.72A4.39,4.39,0,0,0,271,136a56.24,56.24,0,0,1,1.07-17.79,4.38,4.38,0,0,0-4-5.34,51.17,51.17,0,0,0-7.63.07c-13,1.11-24.65,7.47-36.14,12.92-3.75,1.78-7.48,3.58-11.12,5.59-10.42,5.76-21.38,12.94-28.1,23.4-6,9.27-7.68,20.17-6.71,31,1.54,17.41,8.84,33.4,15.11,49.49,2.42,6.24,4.58,12.73,7.51,18.75,2.57,5.28,8.05,10.07,13.38,13.22,12.7,7.49,28.19,9.58,42.69,10.23,14.84.66,30.56.88,45-2.92,20-5.28,35-20.53,41-40.19A92,92,0,0,0,346.17,198.13Z" transform="translate(-131.45 -78.46)"/><path class="cls-1" d="M374.71,196q-.57-5-1.36-9.92a4.43,4.43,0,0,0-6.57-3.13,65,65,0,0,1-11.38,4.91,4.33,4.33,0,0,0-3,4.74c.19,1.24.35,2.47.49,3.71q.3,2.91.47,5.84c.86,16.27-1.88,33.13-10.33,47.26-11.34,18.94-30.93,29-52.37,31.72a203.84,203.84,0,0,1-45.26.25c-15.73-1.61-33.11-5.47-44.83-16.86-4.2-4.09-6.45-8.64-8.59-13.95-4.09-10.17-8-20.4-12-30.63-6.59-17.13-12.32-36.77-6.38-54.92,6.09-18.63,23.15-30.05,39.75-38.62,18.21-9.41,37.52-19.5,58.42-17.83a4.47,4.47,0,0,0,4.43-2.48,63.34,63.34,0,0,1,5.39-8.21,4.4,4.4,0,0,0-3.22-7,120.54,120.54,0,0,0-63.28,13.66,374.51,374.51,0,0,0-33.26,19.7c-11.35,7.48-22.35,16.09-30.1,27.41-5.78,8.42-9.41,18.45-7.8,28.68,2.07,13,6.35,25.88,9.91,38.57,3.48,12.45,6.76,25,10.82,37.27a48.58,48.58,0,0,0,13.06,20.43c15.8,15.14,37.71,22,58.92,25.2a202.3,202.3,0,0,0,42.6,1.53c28-1.77,55.29-12,73.67-34.06,12-14.42,20.83-33.39,22.27-52.31A115.49,115.49,0,0,0,374.71,196Z" transform="translate(-131.45 -78.46)"/></svg>